# xmcd
#
# Track frame offsets: 
#        150
#        18389
#        41949
#        59014
#        77890
#        118284
#        130843
#        148625
#        174514
#        207220
#        215129
#        233518
#        244490
#
# Disc length: 3426 seconds
#
# Revision: 2
# Processed by: cddbd v1.5.2PL0 Copyright (c) Steve Scherf et al.
# Submitted via: ExactAudioCopyFreeDBPlugin 1.0
#
DISCID=c90d600d
DTITLE=Snowy White - Released
DYEAR=2016
DGENRE=Blues Rock
TTITLE0=Opening Peace
TTITLE1=The Blues Talking
TTITLE2=It's All Down To Me
TTITLE3=It's Always Love (That Breaks Your Heart)
TTITLE4=Out Of Control
TTITLE5=I Know What's Coming
TTITLE6=Blue Day
TTITLE7=Blues On A Borrowed Guitar
TTITLE8=\\nLife Full Of Lonely
TTITLE9=Missing...
TTITLE10=Wrong Side Of The Tracks
TTITLE11=Everything - It's Alright
TTITLE12=How Was It For You
EXTD=YEAR: 2016
EXTT0=
EXTT1=
EXTT2=
EXTT3=
EXTT4=
EXTT5=
EXTT6=
EXTT7=
EXTT8=
EXTT9=
EXTT10=
EXTT11=
EXTT12=
PLAYORDER=
